<svg version="1.1" xmlns="http://www.w3.org/2000/svg" xmlns:xlink="http://www.w3.org/1999/xlink" width="15" height="29"><defs/><g><path fill="rgb(243,129,129)" stroke="none" paint-order="stroke fill markers" fill-rule="evenodd" d=" M 13.08929443359375 2.1989965438842773 C 13.08929443359375 3.675403594970703 13.08929443359375 6.320061683654785 13.08929443359375 6.320061683654785 C 13.08929443359375 6.320061683654785 10.051689147949219 6.017270088195801 9.291000366210938 7.18134880065918 C 8.8751220703125 7.817330360412598 9.121971130371094 9.680571556091309 9.085121154785156 11.018695831298828 C 10.411148071289062 11.018695831298828 11.788444519042969 11.018695831298828 13.114356994628906 11.018695831298828 C 12.773551940917969 12.583317756652832 12.529678344726562 13.643088340759277 12.279281616210938 14.997305870056152 C 11.131782531738281 14.997305870056152 9.062576293945312 14.997305870056152 9.062576293945312 14.997305870056152 C 9.062576293945312 14.997305870056152 9.062576293945312 27.800979614257812 9.062576293945312 27.800979614257812 C 9.062576293945312 27.800979614257812 5.265769958496094 27.800979614257812 3.4808349609375 27.800979614257812 C 3.4819793701171875 23.853960037231445 3.4800338745117188 19.248905181884766 3.4808349609375 15.04737377166748 C 2.6137161254882812 15.04737377166748 1.9726181030273438 15.04737377166748 1.1057281494140625 15.04737377166748 C 1.1057281494140625 13.571562767028809 1.1057281494140625 12.495698928833008 1.1057281494140625 11.018695831298828 C 1.9469833374023438 11.018695831298828 2.6129150390625 11.018695831298828 3.4546279907226562 11.018695831298828 C 3.5750198364257812 8.073034286499023 3.620452880859375 5.154790878295898 5.083580017089844 3.66884708404541 C 6.72821044921875 1.998128890991211 8.296623229980469 2.1989965438842773 13.08929443359375 2.1989965438842773 Z"/></g></svg>