<svg version="1.1" xmlns="http://www.w3.org/2000/svg" xmlns:xlink="http://www.w3.org/1999/xlink" width="28" height="28"><defs/><g><path fill="rgb(243,129,129)" stroke="none" paint-order="stroke fill markers" fill-rule="evenodd" d=" M 23.69989013671875 26.799787521362305 C 23.69989013671875 26.799787521362305 4.499908447265625 26.799787521362305 4.499908447265625 26.799787521362305 C 2.7327117919921875 26.799787521362305 1.2999114990234375 25.366891860961914 1.2999114990234375 23.599614143371582 C 1.2999114990234375 23.599614143371582 1.2999114990234375 4.399765968322754 1.2999114990234375 4.399765968322754 C 1.2999114990234375 2.632488250732422 2.7327117919921875 1.1995925903320312 4.499908447265625 1.1995925903320312 C 4.499908447265625 1.1995925903320312 23.69989013671875 1.1995925903320312 23.69989013671875 1.1995925903320312 C 25.467315673828125 1.1995925903320312 26.900001525878906 2.632488250732422 26.900001525878906 4.399765968322754 C 26.900001525878906 4.399765968322754 26.900001525878906 23.599614143371582 26.900001525878906 23.599614143371582 C 26.900001525878906 25.366891860961914 25.467315673828125 26.799787521362305 23.69989013671875 26.799787521362305 Z M 14.100013732910156 9.03939151763916 C 12.104393005371094 9.03939151763916 10.388809204101562 10.220755577087402 9.6016845703125 11.919487953186035 C 9.6016845703125 11.919487953186035 9.597221374511719 11.919487953186035 9.597221374511719 11.919487953186035 C 9.588981628417969 11.937369346618652 9.5833740234375 11.956442832946777 9.575363159179688 11.974324226379395 C 9.528213500976562 12.079228401184082 9.486557006835938 12.187112808227539 9.446731567382812 12.29559326171875 C 9.427619934082031 12.348045349121094 9.407135009765625 12.398709297180176 9.389739990234375 12.45116138458252 C 9.353233337402344 12.5626220703125 9.323249816894531 12.676466941833496 9.294525146484375 12.790907859802246 C 9.281021118164062 12.844552040100098 9.264999389648438 12.897004127502441 9.253211975097656 12.951244354248047 C 9.22723388671875 13.07224178314209 9.209037780761719 13.195027351379395 9.191986083984375 13.319005012512207 C 9.18511962890625 13.369072914123535 9.174591064453125 13.417948722839355 9.169212341308594 13.468612670898438 C 9.150558471679688 13.643254280090332 9.139915466308594 13.820280075073242 9.139915466308594 13.999690055847168 C 9.139915466308594 16.73911952972412 11.360641479492188 18.959392547607422 14.100013732910156 18.959392547607422 C 16.839271545410156 18.959392547607422 19.05999755859375 16.73911952972412 19.05999755859375 13.999690055847168 C 19.05999755859375 13.820280075073242 19.049354553222656 13.643254280090332 19.03070068359375 13.468612670898438 C 19.02532196044922 13.417948722839355 19.014793395996094 13.369072914123535 19.00792694091797 13.319005012512207 C 18.990875244140625 13.195027351379395 18.972679138183594 13.07224178314209 18.946701049804688 12.951244354248047 C 18.934913635253906 12.897004127502441 18.91889190673828 12.844552040100098 18.90538787841797 12.790907859802246 C 18.876663208007812 12.676466941833496 18.8466796875 12.5626220703125 18.81017303466797 12.45116138458252 C 18.79277801513672 12.398709297180176 18.772293090820312 12.348045349121094 18.75318145751953 12.29559326171875 C 18.713356018066406 12.187112808227539 18.67169952392578 12.079228401184082 18.624549865722656 11.974324226379395 C 18.616539001464844 11.956442832946777 18.610931396484375 11.937369346618652 18.602691650390625 11.919487953186035 C 18.602691650390625 11.919487953186035 18.598228454589844 11.919487953186035 18.598228454589844 11.919487953186035 C 17.81110382080078 10.220755577087402 16.09552001953125 9.03939151763916 14.100013732910156 9.03939151763916 Z M 24.019981384277344 5.359400749206543 C 24.019981384277344 4.65248966217041 23.446861267089844 4.079689025878906 22.739959716796875 4.079689025878906 C 22.739959716796875 4.079689025878906 20.179916381835938 4.079689025878906 20.179916381835938 4.079689025878906 C 19.47301483154297 4.079689025878906 18.900009155273438 4.65248966217041 18.900009155273438 5.359400749206543 C 18.900009155273438 5.359400749206543 18.900009155273438 7.920016288757324 18.900009155273438 7.920016288757324 C 18.900009155273438 8.626927375793457 19.47301483154297 9.199728012084961 20.179916381835938 9.199728012084961 C 20.179916381835938 9.199728012084961 22.739959716796875 9.199728012084961 22.739959716796875 9.199728012084961 C 23.446861267089844 9.199728012084961 24.019981384277344 8.626927375793457 24.019981384277344 7.920016288757324 C 24.019981384277344 7.920016288757324 24.019981384277344 5.359400749206543 24.019981384277344 5.359400749206543 Z M 24.019981384277344 11.919487953186035 C 24.019981384277344 11.919487953186035 21.660324096679688 11.919487953186035 21.660324096679688 11.919487953186035 C 21.84239959716797 12.582291603088379 21.940017700195312 13.27966594696045 21.940017700195312 13.999690055847168 C 21.940017700195312 18.329967498779297 18.429885864257812 21.839488983154297 14.100013732910156 21.839488983154297 C 9.770027160644531 21.839488983154297 6.260009765625 18.329967498779297 6.260009765625 13.999690055847168 C 6.260009765625 13.27966594696045 6.357627868652344 12.582291603088379 6.539588928222656 11.919487953186035 C 6.539588928222656 11.919487953186035 4.179931640625 11.919487953186035 4.179931640625 11.919487953186035 C 4.179931640625 11.919487953186035 4.179931640625 22.63938331604004 4.179931640625 22.63938331604004 C 4.179931640625 23.346890449523926 4.7530517578125 23.91969108581543 5.459953308105469 23.91969108581543 C 5.459953308105469 23.91969108581543 22.739959716796875 23.91969108581543 22.739959716796875 23.91969108581543 C 23.446861267089844 23.91969108581543 24.019981384277344 23.346890449523926 24.019981384277344 22.63938331604004 C 24.019981384277344 22.63938331604004 24.019981384277344 11.919487953186035 24.019981384277344 11.919487953186035 Z"/></g></svg>