<svg version="1.1" xmlns="http://www.w3.org/2000/svg" xmlns:xlink="http://www.w3.org/1999/xlink" width="23" height="29"><defs/><g><path fill="rgb(243,129,129)" stroke="none" paint-order="stroke fill markers" fill-rule="evenodd" d=" M 10.050758361816406 17.853726387023926 C 9.841560363769531 18.686999320983887 9.631217956542969 19.56020736694336 9.412864685058594 20.414341926574707 C 9.197601318359375 21.255959510803223 9.008430480957031 22.11009407043457 8.695320129394531 22.88376235961914 C 8.176216125488281 24.16526222229004 7.516807556152344 25.403250694274902 6.6517486572265625 26.40520477294922 C 6.077140808105469 27.07218074798584 6.199363708496094 26.805747985839844 6.026214599609375 26.76998519897461 C 5.894264221191406 26.74256706237793 5.882591247558594 26.613224983215332 5.856727600097656 26.42547035217285 C 5.715965270996094 25.406826972961426 5.811866760253906 24.230231285095215 5.8643951416015625 23.085822105407715 C 5.9239044189453125 21.782268524169922 6.197990417480469 20.698060035705566 6.452507019042969 19.61504364013672 C 6.937049865722656 17.551530838012695 7.398933410644531 15.527953147888184 7.8877105712890625 13.451327323913574 C 7.920440673828125 13.313044548034668 8.00787353515625 13.084758758544922 7.9776611328125 13.006080627441406 C 7.756103515625 12.429107666015625 7.612251281738281 11.91114330291748 7.549079895019531 11.305560111999512 C 7.4761810302734375 10.609973907470703 7.532142639160156 9.961475372314453 7.688468933105469 9.362448692321777 C 7.964500427246094 8.304466247558594 8.601249694824219 7.366885185241699 9.582351684570312 7.024158477783203 C 10.2060546875 6.807793617248535 10.89727783203125 6.905545234680176 11.316818237304688 7.15648078918457 C 11.749176025390625 7.414568901062012 12.045578002929688 7.8228607177734375 12.184051513671875 8.40162181854248 C 12.331565856933594 9.017337799072266 12.222846984863281 9.752859115600586 12.104171752929688 10.293473243713379 C 11.837066650390625 11.511792182922363 11.486305236816406 12.42672348022461 11.167243957519531 13.602723121643066 C 11.009086608886719 14.18625259399414 10.830215454101562 14.785279273986816 10.97784423828125 15.414704322814941 C 11.113685607910156 15.99286937713623 11.414665222167969 16.39102840423584 11.825279235839844 16.689647674560547 C 12.250656127929688 16.999591827392578 12.754539489746094 17.16946506500244 13.449882507324219 17.14502716064453 C 14.677604675292969 17.10211181640625 15.530990600585938 16.317118644714355 16.101478576660156 15.576828956604004 C 17.013572692871094 14.392484664916992 17.566322326660156 12.793292045593262 17.775978088378906 10.890711784362793 C 17.84349822998047 10.277379989624023 17.893051147460938 9.572257041931152 17.845672607421875 8.876670837402344 C 17.758468627929688 7.59278678894043 17.356666564941406 6.560434341430664 16.719345092773438 5.759943962097168 C 16.11292266845703 4.997600555419922 15.253013610839844 4.390825271606445 14.207481384277344 4.049290657043457 C 13.170417785644531 3.7107362747192383 11.734756469726562 3.59808349609375 10.459541320800781 3.8162364959716797 C 8.1424560546875 4.213203430175781 6.507896423339844 5.530466079711914 5.5453338623046875 7.349003791809082 C 5.040992736816406 8.30088996887207 4.7080841064453125 9.39642333984375 4.7080841064453125 10.75898551940918 C 4.7080841064453125 11.809815406799316 4.9674072265625 12.624014854431152 5.3860321044921875 13.258804321289062 C 5.518669128417969 13.460268020629883 5.714134216308594 13.625968933105469 5.844482421875 13.856042861938477 C 6.029075622558594 14.182080268859863 5.815986633300781 14.667262077331543 5.724662780761719 15.020121574401855 C 5.6149139404296875 15.44510269165039 5.603240966796875 16.03220844268799 5.1067962646484375 16.042341232299805 C 4.9014892578125 16.045917510986328 4.643196105957031 15.895713806152344 4.468788146972656 15.799154281616211 C 3.164276123046875 15.077938079833984 2.3715438842773438 13.766039848327637 2.0466461181640625 12.064923286437988 C 1.8492355346679688 11.031378746032715 1.849578857421875 9.825576782226562 2.0466461181640625 8.826602935791016 C 2.2370758056640625 7.860411643981934 2.5914993286132812 6.96872615814209 2.9836883544921875 6.245721817016602 C 3.7979354858398438 4.743088722229004 4.990638732910156 3.541459083557129 6.4425506591796875 2.683152198791504 C 7.558692932128906 2.022732734680176 8.818000793457031 1.5602006912231445 10.34979248046875 1.3372793197631836 C 10.858253479003906 1.2627735137939453 11.384223937988281 1.232375144958496 11.954826354980469 1.2055530548095703 C 13.622688293457031 1.1268749237060547 15.139373779296875 1.5047683715820312 16.280921936035156 2.014984130859375 C 17.486099243164062 2.5538101196289062 18.44751739501953 3.2714500427246094 19.261077880859375 4.1607513427734375 C 20.098556518554688 5.075682640075684 20.708641052246094 6.14022159576416 21.09545135498047 7.470001220703125 C 21.29663848876953 8.16201114654541 21.492904663085938 8.902300834655762 21.492904663085938 9.757031440734863 C 21.492904663085938 10.614742279052734 21.311630249023438 11.369933128356934 21.18505859375 12.125123977661133 C 20.711044311523438 14.953364372253418 19.36602020263672 17.266024589538574 17.347396850585938 18.582691192626953 C 16.857818603515625 18.901576042175293 16.265586853027344 19.196022987365723 15.593017578125 19.392122268676758 C 14.925941467285156 19.58643341064453 14.165138244628906 19.731868743896484 13.350204467773438 19.675244331359863 C 12.558616638183594 19.621004104614258 11.911453247070312 19.405831336975098 11.366714477539062 19.098271369934082 C 10.826553344726562 18.793095588684082 10.372566223144531 18.419374465942383 10.050758361816406 17.853726387023926 Z"/></g></svg>