<svg version="1.1" xmlns="http://www.w3.org/2000/svg" xmlns:xlink="http://www.w3.org/1999/xlink" width="28" height="24"><defs/><g><path fill="rgb(243,129,129)" stroke="none" paint-order="stroke fill markers" fill-rule="evenodd" d=" M 18.512603759765625 1.6010637283325195 C 20.547019958496094 1.5647048950195312 21.629745483398438 2.3061866760253906 22.66394805908203 3.2485361099243164 C 23.541824340820312 3.173434257507324 24.68268585205078 2.6828880310058594 25.35468292236328 2.341353416442871 C 25.572463989257812 2.2227401733398438 25.790359497070312 2.1029348373413086 26.008026123046875 1.9843215942382812 C 25.624305725097656 3.021442413330078 25.10382843017578 3.8332576751708984 24.304000854492188 4.4495697021484375 C 24.126388549804688 4.586064338684082 23.950035095214844 4.771434783935547 23.727447509765625 4.858457565307617 C 23.727447509765625 4.862033843994141 23.727447509765625 4.866802215576172 23.727447509765625 4.870974540710449 C 24.867164611816406 4.859649658203125 25.80718231201172 4.345261573791504 26.700050354003906 4.066311836242676 C 26.700050354003906 4.070484161376953 26.700050354003906 4.0746564865112305 26.700050354003906 4.079424858093262 C 26.23107147216797 4.8244829177856445 25.596267700195312 5.580865859985352 24.91900634765625 6.123268127441406 C 24.645721435546875 6.340229034423828 24.37232208251953 6.55718994140625 24.099037170410156 6.774150848388672 C 24.113914489746094 7.981144905090332 24.08118438720703 9.132706642150879 23.855506896972656 10.147177696228027 C 22.543899536132812 16.04207706451416 19.068443298339844 20.04452896118164 13.566810607910156 21.758758544921875 C 11.591331481933594 22.37447452545166 8.398773193359375 22.627198219299316 6.1353607177734375 22.065126419067383 C 5.0129241943359375 21.78677272796631 3.9990921020507812 21.472060203552246 3.047515869140625 21.056615829467773 C 2.5190277099609375 20.825349807739258 2.029449462890625 20.575010299682617 1.5612716674804688 20.289504051208496 C 1.4074630737304688 20.195924758911133 1.2537689208984375 20.10234546661377 1.0999603271484375 20.008766174316406 C 1.6104812622070312 20.024263381958008 2.2077484130859375 20.16493034362793 2.7784652709960938 20.072543144226074 C 3.2948226928710938 19.989096641540527 3.8012237548828125 20.011150360107422 4.27752685546875 19.90684223175049 C 5.4656524658203125 19.645773887634277 6.52056884765625 19.30125904083252 7.4294586181640625 18.769585609436035 C 7.87005615234375 18.511497497558594 8.538619995117188 18.209301948547363 8.851730346679688 17.837368965148926 C 8.261672973632812 17.847501754760742 7.726890563964844 17.710411071777344 7.288581848144531 17.556035041809082 C 5.589591979980469 16.956412315368652 4.6007080078125 15.853130340576172 3.9572067260742188 14.196121215820312 C 4.472076416015625 14.252745628356934 5.955116271972656 14.386856079101562 6.3019866943359375 14.094197273254395 C 5.6537933349609375 14.05843448638916 5.030548095703125 13.6829252243042 4.58514404296875 13.404571533203125 C 3.2183761596679688 12.54924488067627 2.1038360595703125 11.115157127380371 2.1121902465820312 8.907997131347656 C 2.2915191650390625 8.993231773376465 2.4709625244140625 9.078466415405273 2.6502914428710938 9.163105010986328 C 2.9936141967773438 9.307944297790527 3.3426589965820312 9.385430335998535 3.7522430419921875 9.47006893157959 C 3.9252777099609375 9.505831718444824 4.2711181640625 9.607159614562988 4.46978759765625 9.533249855041504 C 4.461204528808594 9.533249855041504 4.4526214599609375 9.533249855041504 4.44415283203125 9.533249855041504 C 4.179679870605469 9.226285934448242 3.7489242553710938 9.020649909973145 3.4831924438476562 8.69044017791748 C 2.6063461303710938 7.60086727142334 1.7845458984375 5.923592567443848 2.3044509887695312 3.925644874572754 C 2.4362869262695312 3.4190053939819336 2.6453704833984375 2.971970558166504 2.8681869506835938 2.558910369873047 C 2.8766555786132812 2.563082695007324 2.8852386474609375 2.5672550201416016 2.8938217163085938 2.571427345275879 C 2.99578857421875 2.7854080200195312 3.2235260009765625 2.9421682357788086 3.3678359985351562 3.1209821701049805 C 3.815643310546875 3.675901412963867 4.368049621582031 4.175388336181641 4.9309844970703125 4.615270614624023 C 6.848899841308594 6.1155195236206055 8.576156616210938 7.0370073318481445 11.350204467773438 7.719480514526367 C 12.053901672363281 7.892930030822754 12.867233276367188 8.025252342224121 13.707801818847656 8.026444435119629 C 13.471710205078125 7.338606834411621 13.547584533691406 6.226384162902832 13.733436584472656 5.560600280761719 C 14.200927734375 3.887497901916504 15.21624755859375 2.6816959381103516 16.706039428710938 2.035581588745117 C 17.062179565429688 1.8806095123291016 17.457229614257812 1.7679567337036133 17.871963500976562 1.6773576736450195 C 18.08551025390625 1.6517276763916016 18.299057006835938 1.6260976791381836 18.512603759765625 1.6010637283325195 Z"/></g></svg>